<svg width="873" height="1000" fill="none" xmlns="http://www.w3.org/2000/svg"><g clip-path="url(#clip0_1_793)" fill-rule="evenodd" clip-rule="evenodd"><path d="M306.774 425.532h234.005c67.222 0 123.324 28.676 158.207 77.134 34.857 48.46 35.932 129.319 15.605 192.576l-25.988 80.757c-10.853 33.72-61.671 193.192-71.582 224.001h-127.66s1.952 1.71 108.595-329.787c9.416-29.254 14.792-76.74 0-97.276-14.767-20.534-39.683-32.687-72.652-32.687h-191.28c-37.558 0-70.842 24.428-82.461 60.508l55.211-175.226z" fill="url(#paint0_linear_1_793)"/><path d="M124.336 1000H-.462C105.755 666.469 213.178 333.33 320.023 0H444.65a793.255 793.255 0 01-1.597 5.014C270.17 536.96 329.143 357.318 124.336 1000z" fill="#F0145A"/></g><defs><linearGradient id="paint0_linear_1_793" x1="653.095" y1="999.999" x2="336.049" y2="646.678" gradientUnits="userSpaceOnUse"><stop stop-color="#F0145A"/><stop offset="1" stop-color="#693264"/></linearGradient><clipPath id="clip0_1_793"><path fill="#fff" d="M0 0h872.34v1000H0z"/></clipPath></defs></svg>