<svg width="65" height="64" fill="none" xmlns="http://www.w3.org/2000/svg"><path fill-rule="evenodd" clip-rule="evenodd" d="M53.785 35.076v17.296c0 3.093-2.425 5.628-5.388 5.628H16.304c-2.964 0-5.388-2.535-5.388-5.628V35.076h16.666v7.511l4.768 3.134 4.769-3.134v-7.51h16.666z" fill="url(#paint0_linear_1_823)"/><path fill-rule="evenodd" clip-rule="evenodd" d="M29.252 35.076v6.609l3.098 2.035 3.098-2.035v-6.609h-6.196z" fill="url(#paint1_linear_1_823)"/><path fill-rule="evenodd" clip-rule="evenodd" d="M12.407 15.143h39.886c1.883 0 3.421 1.708 3.421 3.795v10.253c0 2.088-1.538 3.796-3.42 3.796H12.406c-1.883 0-3.42-1.708-3.42-3.796V18.938c0-2.087 1.537-3.795 3.42-3.795z" fill="url(#paint2_linear_1_823)"/><path fill-rule="evenodd" clip-rule="evenodd" d="M24.046 5.954h16.609a2.814 2.814 0 012.806 2.806v4.378h-3.557V10.55c0-.698-.57-1.27-1.268-1.27H26.064c-.697 0-1.267.572-1.267 1.27v2.587h-3.558V8.76a2.814 2.814 0 012.806-2.806z" fill="url(#paint3_linear_1_823)"/><defs><linearGradient id="paint0_linear_1_823" x1="32.35" y1="35.076" x2="32.35" y2="58" gradientUnits="userSpaceOnUse"><stop stop-color="#EF8080"/><stop offset="1" stop-color="#F0145A"/></linearGradient><linearGradient id="paint1_linear_1_823" x1="32.35" y1="35.076" x2="32.35" y2="43.721" gradientUnits="userSpaceOnUse"><stop stop-color="#EF8080"/><stop offset="1" stop-color="#F0145A"/></linearGradient><linearGradient id="paint2_linear_1_823" x1="32.35" y1="15.143" x2="32.35" y2="32.987" gradientUnits="userSpaceOnUse"><stop stop-color="#EF8080"/><stop offset="1" stop-color="#F0145A"/></linearGradient><linearGradient id="paint3_linear_1_823" x1="32.35" y1="5.954" x2="32.35" y2="13.138" gradientUnits="userSpaceOnUse"><stop stop-color="#EF8080"/><stop offset="1" stop-color="#F0145A"/></linearGradient></defs></svg>