<svg width="65" height="64" fill="none" xmlns="http://www.w3.org/2000/svg"><path d="M41.565 37.697c2.352 0 4.678.588 6.726 1.7.372.201.713.44 1.062.67 3.361-6.58 5.135-13.539 5.135-20.328 0-.381 0-.775-.012-1.169a1.244 1.244 0 00-.973-1.157c-7.433-1.624-14.166-5.65-19.458-11.63l-.788-.9a1.207 1.207 0 00-.923-.418c-.381-.049-.677.136-.91.394l-1.207 1.33c-5.021 5.526-11.347 9.341-18.289 11.04l-.8.196a1.21 1.21 0 00-.935 1.157C9.75 35.887 19.965 48.33 24.37 52.884a41.698 41.698 0 003.788 3.448 14.228 14.228 0 01-.748-4.482c0-7.804 6.35-14.154 14.154-14.154z" fill="url(#paint0_linear_1_842)"/><path d="M47.116 41.56a11.654 11.654 0 00-5.551-1.402c-6.45 0-11.692 5.243-11.692 11.692 0 2.179.59 4.308 1.723 6.13 2.153 3.483 5.87 5.563 9.969 5.563 6.437 0 11.692-5.244 11.692-11.693 0-4.308-2.35-8.246-6.141-10.29zm.437 8.733l-9.145 7.117-3.122-4.883A1.23 1.23 0 1137.36 51.2l1.667 2.608 7.014-5.458a1.23 1.23 0 111.512 1.942z" fill="url(#paint1_linear_1_842)"/><defs><linearGradient id="paint0_linear_1_842" x1="32.333" y1="4.458" x2="32.333" y2="56.332" gradientUnits="userSpaceOnUse"><stop stop-color="#EF8080"/><stop offset="1" stop-color="#F0145A"/></linearGradient><linearGradient id="paint1_linear_1_842" x1="41.565" y1="40.158" x2="41.565" y2="63.542" gradientUnits="userSpaceOnUse"><stop stop-color="#EF8080"/><stop offset="1" stop-color="#F0145A"/></linearGradient></defs></svg>